<svg xmlns="http://www.w3.org/2000/svg" width="638.9" height="638.9" viewBox="0 0 638.9 638.9">
  <style>
    .st0{fill:#20b1e6}
  </style>
  <path class="st0" d="M590.6 290.8c0-11.9-9.7-21.6-21.6-21.6H76.1c-11.9 0-21.6 9.7-21.6 21.6v27h536.1v-27zM281.8 205.4L254 252.9h204l-27.7-47.5zM118.7 230.5l-20 22.4h73l-20.1-22.4zM246.9 423.6c0 53.9 43.7 97.5 97.5 97.5s97.5-43.7 97.5-97.5c0-53.9-43.7-97.5-97.5-97.5s-97.5 43.6-97.5 97.5zm92.2-78.7c4.8 0 9.6.5 14.2 1.4l-2.9 15.1c-3.7-.7-7.5-1.1-11.3-1.1-32.8 0-59.4 26.7-59.4 59.4 0 7.7 1.5 15.3 4.3 22.4l-14.3 5.8c-3.6-8.9-5.5-18.4-5.5-28.2.1-41.2 33.7-74.8 74.9-74.8zM160.8 576.3h-31.1c53.1 39.3 118.8 62.7 189.8 62.7 71 0 136.6-23.3 189.7-62.7H160.8z"/>
  <path class="st0" d="M606.9 458.8c20.5-42.1 32-89.4 32-139.3C638.9 143.3 495.6 0 319.5 0 143.3 0 0 143.3 0 319.5 0 415.3 42.5 501.4 109.6 560H569c11.9 0 21.6-9.7 21.6-21.6V334.1h-177c26.8 20.7 44 53.1 44 89.5 0 62.4-50.8 113.2-113.2 113.2S231.3 486 231.3 423.6c0-36.4 17.3-68.8 44-89.5H54.5v130.1c-23.6-43-37-92.3-37-144.7 0-166.5 135.5-302 302-302s302 135.5 302 302c0 32.3-5.1 63.4-14.6 92.6v46.7z"/>
</svg>
